<svg width="16" height="24" viewBox="0 0 16 24" fill="none" xmlns="http://www.w3.org/2000/svg">
<path d="M8.64 23.232C7.59467 23.232 6.66667 23.0187 5.856 22.592C5.06667 22.144 4.40533 21.5467 3.872 20.8C3.36 20.0533 2.96533 19.2 2.688 18.24C2.432 17.28 2.31467 16.256 2.336 15.168C2.336 14.1227 2.47467 13.12 2.752 12.16C3.02933 11.2 3.424 10.3573 3.936 9.63201C4.46933 8.90668 5.12 8.34135 5.888 7.93601C6.67733 7.50935 7.59467 7.29601 8.64 7.29601C9.57867 7.29601 10.4853 7.50935 11.36 7.93601C12.256 8.36268 13.0453 8.94935 13.728 9.69601C14.4107 10.4213 14.944 11.264 15.328 12.224C15.7333 13.1627 15.936 14.1547 15.936 15.2C15.936 16.288 15.7333 17.3227 15.328 18.304C14.944 19.264 14.4107 20.1173 13.728 20.864C13.0453 21.6107 12.2667 22.1973 11.392 22.624C10.5173 23.0293 9.6 23.232 8.64 23.232ZM7.968 18.496C8.56533 18.496 9.09867 18.3573 9.568 18.08C10.0373 17.7813 10.4107 17.3867 10.688 16.896C10.9867 16.4053 11.136 15.8613 11.136 15.264C11.136 14.6453 10.9973 14.1013 10.72 13.632C10.4427 13.1413 10.0693 12.7573 9.6 12.48C9.13067 12.2027 8.59733 12.064 8 12.064C7.424 12.064 6.89067 12.2027 6.4 12.48C5.93067 12.7573 5.55733 13.1413 5.28 13.632C5.024 14.1013 4.896 14.6453 4.896 15.264C4.896 15.8613 5.03467 16.4053 5.312 16.896C5.58933 17.3867 5.96267 17.7813 6.432 18.08C6.90133 18.3573 7.41333 18.496 7.968 18.496ZM2.4 23.264C1.632 23.264 1.07733 23.1467 0.735999 22.912C0.394666 22.6773 0.181332 22.3787 0.095999 22.016C0.031999 21.632 -1.07288e-06 21.2373 -1.07288e-06 20.832V2.43201C-1.07288e-06 1.98401 0.0426656 1.57868 0.127999 1.21601C0.213332 0.853346 0.415999 0.565346 0.735999 0.352013C1.07733 0.117345 1.64267 1.14441e-05 2.432 1.14441e-05C3.2 1.14441e-05 3.744 0.117345 4.064 0.352013C4.384 0.586679 4.576 0.896012 4.64 1.28001C4.704 1.64268 4.72533 2.02668 4.704 2.43201V21.824C4.59733 22.3147 4.37333 22.6773 4.032 22.912C3.69067 23.1467 3.14667 23.264 2.4 23.264Z" fill="black"/>
</svg>
