<svg width="207" height="90" viewBox="0 0 207 90" fill="none" xmlns="http://www.w3.org/2000/svg">
<path d="M25.92 69.696C22.784 69.696 20 69.056 17.568 67.776C15.2 66.432 13.216 64.64 11.616 62.4C10.08 60.16 8.896 57.6 8.064 54.72C7.296 51.84 6.944 48.768 7.008 45.504C7.008 42.368 7.424 39.36 8.256 36.48C9.088 33.6 10.272 31.072 11.808 28.896C13.408 26.72 15.36 25.024 17.664 23.808C20.032 22.528 22.784 21.888 25.92 21.888C28.736 21.888 31.456 22.528 34.08 23.808C36.768 25.088 39.136 26.848 41.184 29.088C43.232 31.264 44.832 33.792 45.984 36.672C47.2 39.488 47.808 42.464 47.808 45.6C47.808 48.864 47.2 51.968 45.984 54.912C44.832 57.792 43.232 60.352 41.184 62.592C39.136 64.832 36.8 66.592 34.176 67.872C31.552 69.088 28.8 69.696 25.92 69.696ZM23.904 55.488C25.696 55.488 27.296 55.072 28.704 54.24C30.112 53.344 31.232 52.16 32.064 50.688C32.96 49.216 33.408 47.584 33.408 45.792C33.408 43.936 32.992 42.304 32.16 40.896C31.328 39.424 30.208 38.272 28.8 37.44C27.392 36.608 25.792 36.192 24 36.192C22.272 36.192 20.672 36.608 19.2 37.44C17.792 38.272 16.672 39.424 15.84 40.896C15.072 42.304 14.688 43.936 14.688 45.792C14.688 47.584 15.104 49.216 15.936 50.688C16.768 52.16 17.888 53.344 19.296 54.24C20.704 55.072 22.24 55.488 23.904 55.488ZM7.2 69.792C4.896 69.792 3.232 69.44 2.208 68.736C1.184 68.032 0.543997 67.136 0.287997 66.048C0.0959969 64.896 -3.21865e-06 63.712 -3.21865e-06 62.496V7.29598C-3.21865e-06 5.95197 0.127997 4.73598 0.383997 3.64798C0.639997 2.55998 1.248 1.69598 2.208 1.05598C3.232 0.351974 4.928 -2.67029e-05 7.296 -2.67029e-05C9.6 -2.67029e-05 11.232 0.351974 12.192 1.05598C13.152 1.75998 13.728 2.68797 13.92 3.83998C14.112 4.92798 14.176 6.07998 14.112 7.29598V65.472C13.792 66.944 13.12 68.032 12.096 68.736C11.072 69.44 9.44 69.792 7.2 69.792ZM92.985 69.696C90.617 69.696 88.857 69.28 87.705 68.448C86.617 67.616 86.073 66.592 86.073 65.376L87.033 63.744C86.649 64.384 85.913 65.184 84.825 66.144C83.737 67.04 82.329 67.872 80.601 68.64C78.873 69.344 76.729 69.696 74.169 69.696C71.225 69.696 68.409 69.056 65.721 67.776C63.097 66.496 60.761 64.736 58.713 62.496C56.665 60.192 55.033 57.6 53.817 54.72C52.665 51.84 52.089 48.8 52.089 45.6C52.089 42.464 52.665 39.488 53.817 36.672C55.033 33.792 56.665 31.264 58.713 29.088C60.825 26.848 63.193 25.088 65.817 23.808C68.441 22.528 71.225 21.888 74.169 21.888C76.537 21.888 78.553 22.24 80.217 22.944C81.881 23.584 83.257 24.352 84.345 25.248C85.497 26.144 86.361 27.008 86.937 27.84L86.169 26.496C86.105 24.96 86.617 23.808 87.705 23.04C88.857 22.208 90.649 21.792 93.081 21.792C95.385 21.792 97.017 22.144 97.977 22.848C99.001 23.552 99.609 24.48 99.801 25.632C100.057 26.784 100.185 28 100.185 29.28V62.4C100.185 63.616 100.057 64.8 99.801 65.952C99.609 67.104 99.001 68.032 97.977 68.736C97.017 69.376 95.353 69.696 92.985 69.696ZM76.281 55.392C77.945 55.392 79.449 54.976 80.793 54.144C82.201 53.248 83.289 52.064 84.057 50.592C84.889 49.12 85.305 47.488 85.305 45.696C85.305 43.84 84.889 42.208 84.057 40.8C83.225 39.328 82.105 38.176 80.697 37.344C79.289 36.448 77.753 36 76.089 36C74.233 36 72.569 36.448 71.097 37.344C69.689 38.24 68.537 39.424 67.641 40.896C66.809 42.368 66.393 44.032 66.393 45.888C66.393 47.616 66.809 49.216 67.641 50.688C68.537 52.096 69.721 53.248 71.193 54.144C72.729 54.976 74.425 55.392 76.281 55.392ZM129.511 89.568C127.271 89.568 125.031 89.28 122.791 88.704C120.551 88.128 118.503 87.36 116.647 86.4C114.791 85.44 113.319 84.416 112.231 83.328C111.143 82.24 110.599 81.152 110.599 80.064C110.599 79.04 110.791 78.08 111.175 77.184C111.559 76.352 112.135 75.52 112.903 74.688C113.799 73.728 114.567 72.992 115.207 72.48C115.847 71.968 116.615 71.712 117.511 71.712C118.407 71.712 119.207 71.936 119.911 72.384C120.615 72.896 121.351 73.44 122.119 74.016C122.951 74.592 123.975 75.104 125.191 75.552C126.407 76.064 127.943 76.32 129.799 76.32C131.143 76.32 132.359 76.064 133.447 75.552C134.535 75.104 135.495 74.4 136.327 73.44C137.159 72.544 137.799 71.456 138.247 70.176C138.695 68.96 138.919 67.584 138.919 66.048V26.304C139.111 24.64 139.751 23.456 140.839 22.752C141.991 21.984 143.719 21.6 146.023 21.6C148.327 21.6 149.927 21.952 150.823 22.656C151.783 23.296 152.359 24.16 152.551 25.248C152.807 26.336 152.935 27.488 152.935 28.704V66.624C152.935 70.272 152.263 73.504 150.919 76.32C149.575 79.2 147.783 81.6 145.543 83.52C143.303 85.504 140.807 87.008 138.055 88.032C135.303 89.056 132.455 89.568 129.511 89.568ZM127.783 68.544C124.903 68.544 122.151 67.936 119.527 66.72C116.967 65.44 114.663 63.712 112.615 61.536C110.631 59.36 109.063 56.864 107.911 54.048C106.759 51.232 106.183 48.256 106.183 45.12C106.183 41.984 106.759 39.04 107.911 36.288C109.063 33.472 110.631 31.008 112.615 28.896C114.663 26.72 116.967 25.024 119.527 23.808C122.151 22.528 124.903 21.888 127.783 21.888C130.599 21.888 132.999 22.464 134.983 23.616C136.967 24.704 138.567 26.304 139.783 28.416C141.063 30.464 141.991 32.928 142.567 35.808C143.143 38.624 143.431 41.792 143.431 45.312C143.431 50.048 142.919 54.176 141.895 57.696C140.871 61.152 139.207 63.84 136.903 65.76C134.599 67.616 131.559 68.544 127.783 68.544ZM129.511 54.624C131.175 54.624 132.679 54.208 134.023 53.376C135.367 52.48 136.423 51.328 137.191 49.92C138.023 48.512 138.439 46.912 138.439 45.12C138.439 43.328 138.023 41.728 137.191 40.32C136.423 38.912 135.335 37.792 133.927 36.96C132.583 36.128 131.047 35.712 129.319 35.712C127.591 35.712 126.055 36.128 124.711 36.96C123.367 37.792 122.279 38.944 121.447 40.416C120.679 41.824 120.295 43.424 120.295 45.216C120.295 46.944 120.711 48.512 121.543 49.92C122.375 51.328 123.463 52.48 124.807 53.376C126.215 54.208 127.783 54.624 129.511 54.624ZM184.687 70.656C180.207 70.656 176.335 69.92 173.071 68.448C169.871 66.976 167.247 65.056 165.199 62.688C163.151 60.256 161.615 57.568 160.591 54.624C159.631 51.68 159.151 48.736 159.151 45.792C159.151 40.992 160.239 36.736 162.415 33.024C164.591 29.312 167.599 26.4 171.439 24.288C175.279 22.112 179.695 21.024 184.687 21.024C188.399 21.024 191.599 21.632 194.287 22.848C197.039 24 199.279 25.536 201.007 27.456C202.799 29.312 204.111 31.328 204.943 33.504C205.839 35.68 206.287 37.76 206.287 39.744C206.287 43.264 205.423 45.888 203.695 47.616C202.031 49.28 199.887 50.112 197.263 50.112H174.415C174.543 51.776 175.119 53.184 176.143 54.336C177.231 55.488 178.575 56.384 180.175 57.024C181.775 57.664 183.471 57.984 185.263 57.984C186.799 57.984 188.143 57.92 189.295 57.792C190.447 57.6 191.439 57.376 192.271 57.12C193.103 56.8 193.871 56.512 194.575 56.256C195.279 55.936 195.887 55.68 196.399 55.488C196.975 55.296 197.519 55.168 198.031 55.104C198.991 55.04 199.855 55.328 200.623 55.968C201.455 56.544 202.191 57.44 202.831 58.656C203.279 59.36 203.567 60.032 203.695 60.672C203.887 61.312 203.983 61.952 203.983 62.592C203.983 64.128 203.183 65.504 201.583 66.72C200.047 67.936 197.839 68.896 194.959 69.6C192.143 70.304 188.719 70.656 184.687 70.656ZM174.415 42.24H189.583C190.607 42.24 191.343 42.08 191.791 41.76C192.303 41.376 192.559 40.672 192.559 39.648C192.559 38.496 192.207 37.504 191.503 36.672C190.799 35.776 189.839 35.104 188.623 34.656C187.471 34.144 186.127 33.888 184.591 33.888C182.607 33.888 180.847 34.272 179.311 35.04C177.775 35.808 176.559 36.832 175.663 38.112C174.831 39.392 174.415 40.768 174.415 42.24Z" fill="#0A0A0A"/>
</svg>
